<?xml version="1.0" standalone="yes"?>
<svg xmlns="http://www.w3.org/2000/svg" width="1404" height="408">
<path style="fill:#fd1e28; stroke:none;" d="M0 0L0 408L1404 408L1404 0L0 0z"/>
<path style="fill:#fffbfb; stroke:none;" d="M172 61.4676C149.044 65.7601 124.138 74.2028 105.665 89.0895C71.2936 116.788 47.2241 157.072 45.0401 202C42.0709 263.081 79.2582 323.095 135 348.156C149.968 354.885 164.873 357.635 181 359.17C193.877 360.395 208.212 361.014 221 358.625C242.987 354.517 264.506 345.364 282.17 331.576C310.951 309.108 332.988 280.941 341.53 245C342.384 241.405 341.781 237.643 342.3 234C345.167 213.883 345.891 194.016 341.116 174C329.724 126.246 290.057 82.3901 243 67.1937C228.881 62.634 212.802 61 198 61C189.579 61 180.297 59.9162 172 61.4676z"/>
<path style="fill:#fd1e28; stroke:none;" d="M170 172C169.984 195.543 163.076 219.496 160.83 243C159.698 254.852 158.208 268.982 164.035 279.946C170.593 292.286 185.666 292.014 197 288.618C201.556 287.253 207.522 286.667 209.806 281.696C211.193 278.678 209.28 275.119 209.053 272C208.439 263.555 206.902 255.534 207.004 247C207.129 236.477 209.946 226.316 211.561 216C212.65 209.047 213.045 201.966 214.194 195C215.047 189.837 216.89 185.322 217 180C230.643 180 249.496 181.697 259.102 169.471C264.922 162.065 264.592 150.752 263.424 142C262.946 138.418 263.489 133.816 258.941 133.163C247.753 131.557 236.239 139.144 225 138.871C205.186 138.389 185.878 131.032 166 131C161.117 130.992 154.972 130.02 150.285 131.546C136.755 135.949 130.475 148.465 130.043 162C129.92 165.852 130.42 174.396 134.43 176.397C138.136 178.246 143.301 176.45 147 175.593C154.694 173.811 162.064 172.001 170 172z"/>
<path style="fill:#fffbfb; stroke:none;" d="M475 165C474.847 183.271 468.765 201.823 467.075 220C465.888 232.764 463 245.192 463 258C463 263.771 462.869 269.462 465.365 274.83C470.516 285.908 483.122 288.047 493.985 284.843C497.658 283.759 501.956 282.082 503.961 278.535C506.013 274.907 502.926 271.431 502.263 267.91C501.368 263.159 502 257.821 502 253C502 245.679 502.956 239.183 503.816 232C504.292 228.016 503.637 223.96 504.375 220C505.726 212.756 508.013 205.286 508.872 198C509.691 191.054 509.883 177.775 514.703 172.318C517.599 169.039 523.084 170 527 170C534.626 170 543.305 170.622 549.907 166.03C557.189 160.965 558.331 152.167 557.961 144C557.826 141.037 557.557 136.81 555.272 134.607C552.876 132.297 548.901 133.652 546 133.925C537.31 134.743 528.746 137.768 520 137.985C507.234 138.302 493.578 135.521 481 133.561C472.178 132.186 461.829 130.362 453 132.715C439.959 136.189 435.199 144.003 436.09 157C436.313 160.265 436.305 166.31 439.573 168.141C442.365 169.707 446.046 168.464 449 168.169C457.666 167.303 466.277 165.072 475 165M657 259C657.019 266.026 657.649 276.019 662.754 281.432C668.641 287.675 679.726 286.655 686.999 284.05C689.885 283.016 693.69 281.41 695.127 278.471C696.824 275.002 694.263 271.336 693.47 268C692.32 263.162 692.645 256.937 693.104 252C695.049 231.086 701.177 210.808 704.065 190C705.127 182.348 709.904 173.883 704.811 166.475C701.728 161.989 692.952 160.581 688 161.518C685.017 162.082 681.296 163.986 678.225 163.107C674.712 162.102 674.623 157.364 670.892 156.318C664.466 154.515 655.52 155.943 649 156.715C631.169 158.825 613.537 163.569 599.95 176.3C579.613 195.355 571.028 223.57 575.425 251C577.999 267.056 589.231 283.46 606 285.791C618.805 287.571 633.217 282.498 642.572 273.799C647.598 269.126 650.787 262.029 657 259M751 168L751 170C763.425 181.038 758.949 194.571 756.261 209C751.577 234.142 747.879 259.648 744.845 285C743.031 300.158 740.315 320.145 760 322.711C762.903 323.089 766.104 323.251 769 322.737C773.72 321.899 777.65 318.794 782 317C781.996 312.052 780.67 307.824 780.129 303C779.286 295.496 780 287.551 780 280C792.735 280 806.45 280.971 819 278.625C842.355 274.26 861.752 258.206 872.18 237C874.403 232.479 875.455 227.871 876.509 223C881.57 199.623 877.783 161.36 847.999 156.326C844.206 155.684 839.816 155.728 836 156.184C827.601 157.19 818.567 161.116 812.615 167.206C807.831 172.101 804.127 179.99 798 183C798.128 176.823 800.975 168.464 797.856 162.705C791.515 151 769.223 156.347 760.17 161.295C756.906 163.078 754.024 165.832 751 168M949 235C954.07 234.138 958.886 232.238 964 231.439C973.796 229.909 983.346 229.125 993 226.335C999.536 224.446 1005.4 220.193 1012 219C1014.68 214.23 1020.15 211.871 1023.67 207.679C1029 201.345 1031.01 192.124 1030.92 184C1030.68 163.75 1010.14 156.083 993 156.001C963.212 155.857 935.134 171.289 921.235 198C907.369 224.645 909.267 266.281 939.015 281.391C948.662 286.291 959.434 286.423 970 285.961C988.829 285.136 1023.05 275.299 1017.52 250.015C1016.11 243.592 1005.74 236.821 999.21 240.117C995.384 242.048 994.282 247.417 992.735 251C990.977 255.073 988.235 258.799 984.7 261.521C972.998 270.529 958.501 267.296 951.841 254C948.824 247.976 949 241.541 949 235M1070 166C1072.49 171.801 1078.8 176.287 1078.9 183.015C1079 189.671 1075.68 196.542 1074.37 203C1071.22 218.507 1068.84 234.393 1066.41 250C1064.67 261.153 1063.38 274.72 1072.55 283.427C1078.47 289.042 1095.25 287.223 1099.08 279.896C1103.65 271.157 1101.63 259.456 1102.04 250C1102.47 240.262 1105.03 231.688 1109.42 223C1113.88 214.194 1120 202.625 1129.04 197.729C1134.43 194.808 1140.28 195.364 1146 193.696C1153.01 191.65 1159.09 186.253 1162.55 179.83C1171.47 163.233 1149.5 152.135 1136 157.272C1118.88 163.786 1117.62 183.636 1106 195C1108.36 183.481 1116.82 159.355 1099 156.44C1096.7 156.064 1094.33 155.9 1092 156.105C1088.98 156.372 1085.83 157.33 1083 158.406C1078.32 160.183 1074.33 163.533 1070 166M1253 156.514C1235.33 160.051 1218.83 164.981 1205.27 177.519C1188.56 192.976 1182 215.986 1182 238C1182 254.35 1186.09 270.319 1200.01 280.646C1213.82 290.888 1235.61 285.974 1247.83 275.535C1251.92 272.042 1254.96 267.838 1258.36 263.738C1259.36 262.532 1260.9 260.249 1262.78 260.63C1266.26 261.339 1265.13 272.209 1265.98 274.996C1268.85 284.455 1278.99 287.3 1288 285.486C1291.87 284.706 1298.52 283.844 1300.97 280.362C1304.71 275.045 1300.55 265.686 1300.09 260C1299.17 248.538 1302.53 236.322 1304.17 225C1305.05 218.877 1307.14 213.01 1308.49 207C1309.88 200.761 1310.09 194.286 1311.26 188C1312.45 181.608 1314.39 174.49 1311.98 168.094C1307.86 157.158 1295.8 163.246 1288.01 162.748C1283.68 162.47 1281.8 158.039 1277.99 156.603C1271.76 154.264 1259.46 155.221 1253 156.514z"/>
<path style="fill:#fd1e28; stroke:none;" d="M660 173.714C651.664 175.892 642.686 178.776 635.428 183.514C622.84 191.731 614.597 206.878 610.725 221C607.083 234.277 612.284 260.331 631 256.481C658.257 250.875 660.899 219.91 667.329 198C668.919 192.585 669.936 186.595 670.699 181.001C670.964 179.06 671.308 176.398 669.972 174.742C667.84 172.098 662.797 172.983 660 173.714M1266 173.518C1243.22 178.376 1222.02 197.637 1217.38 221C1214.76 234.195 1218.75 260.262 1237 256.621C1262.7 251.492 1268.72 222.749 1273.34 201C1274.74 194.415 1276.96 187.767 1277 181C1277.01 178.8 1277.35 175.573 1275.4 174.028C1273.11 172.219 1268.6 172.963 1266 173.518M983 176.515C970.475 179.093 961.005 188.648 956.327 200.285C954.457 204.937 946.695 218.614 957.015 217.691C968.138 216.697 986.01 213.3 993.096 203.907C999.167 195.858 1004.15 177.234 989 176.098C986.993 175.947 984.968 176.11 983 176.515M782 265C811.292 264.757 842.988 244.616 843 213C843.003 204.263 844.211 196.509 836.985 190.214C824.967 179.744 812.825 187.972 804.989 198.576C791.766 216.468 782.199 242.704 782 265z"/>
</svg>
